<svg width="155" height="58" viewBox="0 0 155 58" fill="none" xmlns="http://www.w3.org/2000/svg">
<rect width="155" height="58" fill="white"/>
<mask id="mask0_69_137" style="mask-type:luminance" maskUnits="userSpaceOnUse" x="7" y="12" width="141" height="34">
<path d="M147.976 12H7V45.8451H147.976V12Z" fill="white"/>
</mask>
<g mask="url(#mask0_69_137)">
<path d="M11.1047 32.184C11.3099 33.9174 13.0619 35.897 15.4 35.897C17.7381 35.897 19.7308 35.0543 19.7308 33.5107C19.7308 32.1402 18.4058 31.383 15.8626 30.8156L13.1163 30.219C9.22925 29.3888 7.31398 27.4238 7.31398 24.3491C7.31398 20.4733 10.6756 17.9117 15.3811 17.9117C20.0866 17.9117 23.375 20.7445 23.4483 24.5472H19.3121C19.1656 22.77 17.602 21.3765 15.3958 21.3765C13.1896 21.3765 11.7557 22.4112 11.7557 23.9694C11.7557 25.2648 13.0116 25.7613 15.4376 26.3141L17.9955 26.8543C22.2196 27.7576 24.1432 29.7956 24.1432 32.9996C24.1432 37.0777 20.9867 39.656 15.2786 39.656C10.2068 39.656 7 36.6042 7 32.3259L11.1047 32.184Z" fill="#E35205"/>
<path d="M40.5266 31.8106C40.5266 36.648 38.1906 39.5662 34.4208 39.5662C32.225 39.5662 30.5358 38.5003 29.7341 36.8044H29.6504V45.8471H25.5415V24.2948H29.5939V26.9168H29.6776C30.494 25.15 32.1685 24.0549 34.3496 24.0549C38.176 24.0549 40.5266 26.9586 40.5266 31.8106ZM36.3193 31.8106C36.3193 29.0883 35.0236 27.3361 32.9702 27.3361C30.9168 27.3361 29.6358 29.1176 29.6358 31.8106C29.6358 34.5036 30.9587 36.2683 32.9702 36.2683C34.9818 36.2683 36.3193 34.5432 36.3193 31.8106Z" fill="#E35205"/>
<path d="M42.266 23.9735H46.1489V26.6227H46.2305C46.7538 24.7579 47.9867 23.742 49.7219 23.742C50.1908 23.742 51.5723 24.0966 51.88 24.3803L50.6701 27.8806C50.3394 27.7429 49.5754 27.2903 48.9977 27.2903C47.0154 27.2903 46.2849 28.3937 46.2849 30.4651V39.3139H42.266V23.9735Z" fill="#E35205"/>
<path d="M124.21 23.9735H128.093V26.6227H128.175C128.698 24.7579 129.931 23.742 131.666 23.742C132.135 23.742 133.517 24.0966 133.824 24.3803L132.614 27.8806C132.284 27.7429 131.52 27.2903 130.942 27.2903C128.96 27.2903 128.229 28.3937 128.229 30.4651V39.3139H124.21V23.9735Z" fill="#E35205"/>
<path d="M57.1801 24.2468H53.1611V39.2701H57.1801V24.2468Z" fill="#E35205"/>
<path d="M59.2837 23.9861H63.3298V26.7166H63.4156C64.232 24.8142 65.8542 23.7003 68.2216 23.7003C71.6356 23.7003 73.5592 25.8468 73.5592 29.4326V39.3118H69.3708V30.3045C69.3708 28.3041 68.4247 27.1588 66.545 27.1588C64.6653 27.1588 63.4743 28.5314 63.4743 30.5194V39.3118H59.2858V23.9861H59.2837Z" fill="#E35205"/>
<path d="M76.1129 40.457H80.1234C80.4458 41.4916 81.3082 42.5179 82.8655 42.5179C84.9838 42.5179 86.1623 40.7031 86.1623 38.9697V36.3413H86.0785C85.3773 37.935 83.6107 39.0239 81.4379 39.0239C77.7644 39.0239 75.3384 36.2016 75.3384 31.5185C75.3384 26.8355 77.6932 23.8463 81.5091 23.8463C83.6693 23.8463 85.3648 24.979 86.1518 26.6978H86.2209V24.0841H90.581V38.8549C90.581 42.4324 87.257 45.3528 82.7566 45.3528C78.8026 45.3528 76.4394 43.1229 76.117 40.4549M86.1727 31.5498C86.1727 28.8526 84.8687 27.1192 82.8215 27.1192C80.7744 27.1192 79.5248 28.8234 79.5248 31.5498C79.5248 34.2762 80.787 35.8824 82.8215 35.8824C84.8561 35.8824 86.1727 34.2616 86.1727 31.5498Z" fill="#E35205"/>
<path d="M96.3457 36.8691H96.2641V39.3931H92.2996V18.0222H96.3185V27.2381H96.4001C97.2123 25.4963 98.8512 24.4533 100.957 24.4533C104.674 24.4533 106.958 27.2944 106.958 32.0401C106.958 36.7856 104.687 39.6268 100.97 39.6268C98.8094 39.6268 97.1558 38.5838 96.3436 36.8691M96.3038 32.0401C96.3038 34.7017 97.6246 36.4018 99.5797 36.4018C101.535 36.4018 102.843 34.7289 102.843 32.0401C102.843 29.3512 101.577 27.6637 99.5797 27.6637C97.5828 27.6637 96.3038 29.4075 96.3038 32.0401Z" fill="#E35205"/>
<path d="M108.202 31.5039C108.202 26.7437 111.092 23.8484 115.511 23.8484C119.93 23.8484 122.82 26.7292 122.82 31.5039C122.82 36.2788 119.972 39.1866 115.511 39.1866C111.05 39.1866 108.202 36.3309 108.202 31.5039ZM118.732 31.5185C118.732 28.5961 117.466 26.9085 115.511 26.9085C113.556 26.9085 112.275 28.5961 112.275 31.5185C112.275 34.441 113.529 36.1286 115.511 36.1286C117.493 36.1286 118.732 34.4681 118.732 31.5185Z" fill="#E35205"/>
<path d="M133.328 31.2995C133.328 26.6353 135.668 23.7399 139.371 23.7399C141.506 23.7399 143.158 24.8663 143.874 26.4976H143.955V17.6238H147.974V38.6797H144.01V36.1557H143.941C143.225 37.7744 141.517 38.9134 139.342 38.9134C135.652 38.9134 133.326 36.0055 133.326 31.2995M137.443 31.3287C137.443 34.0301 138.683 35.6905 140.707 35.6905C142.731 35.6905 143.983 34.0176 143.983 31.3287C143.983 28.6399 142.704 26.9523 140.707 26.9523C138.71 26.9523 137.443 28.6399 137.443 31.3287Z" fill="#E35205"/>
<path d="M56.8744 20.0248H53.4688V22.0106H56.8744V20.0248Z" fill="#9A9B98"/>
<path d="M56.8744 16.0134H53.4688V17.9993H56.8744V16.0134Z" fill="#9A9B98"/>
<path d="M56.8744 12H53.4688V13.9859H56.8744V12Z" fill="#9A9B98"/>
</g>
</svg>
