<svg width="32" height="32" viewBox="0 0 32 32" fill="none" xmlns="http://www.w3.org/2000/svg">
<path d="M10.5064 20.6933C10.78 23.0849 13.132 25.8161 16.2679 25.8161C19.4039 25.8161 22.0776 24.6538 22.0776 22.5237C22.0776 20.6342 20.3007 19.5882 16.8892 18.8057L13.2041 17.9812C7.98802 16.836 5.41973 14.1238 5.41973 9.88281C5.41973 4.53671 9.92765 1 16.2439 1C22.5602 1 26.9682 4.90889 27.0662 10.1557H21.5173C21.3213 7.70314 19.2245 5.78114 16.2624 5.78114C13.3003 5.78114 11.3791 7.20881 11.3791 9.35793C11.3791 11.1463 13.0654 11.8315 16.3197 12.5931L19.7515 13.3374C25.4169 14.5838 28 17.3952 28 21.8156C28 27.4423 23.7639 31 16.1071 31C9.30268 31 5 26.7915 5 20.8861L10.5082 20.6895L10.5064 20.6933Z" fill="#E35205"/>
</svg>
